%TF.GenerationSoftware,KiCad,Pcbnew,(5.1.9)-1*%
%TF.CreationDate,2021-05-26T15:31:27+08:00*%
%TF.ProjectId,ST-LINK_ODG,53542d4c-494e-44b5-9f4f-44472e6b6963,rev?*%
%TF.SameCoordinates,Original*%
%TF.FileFunction,Legend,Bot*%
%TF.FilePolarity,Positive*%
%FSLAX46Y46*%
G04 Gerber Fmt 4.6, Leading zero omitted, Abs format (unit mm)*
G04 Created by KiCad (PCBNEW (5.1.9)-1) date 2021-05-26 15:31:27*
%MOMM*%
%LPD*%
G01*
G04 APERTURE LIST*
%ADD10C,0.203200*%
%ADD11C,0.150000*%
%ADD12C,0.120000*%
G04 APERTURE END LIST*
D10*
X131250977Y-98558047D02*
X131077108Y-98618523D01*
X130774727Y-98618523D01*
X130646215Y-98558047D01*
X130578179Y-98497571D01*
X130502584Y-98376619D01*
X130487465Y-98255666D01*
X130532822Y-98134714D01*
X130585739Y-98074238D01*
X130699132Y-98013761D01*
X130933477Y-97953285D01*
X131046870Y-97892809D01*
X131099786Y-97832333D01*
X131145143Y-97711380D01*
X131130024Y-97590428D01*
X131054429Y-97469476D01*
X130986393Y-97409000D01*
X130857882Y-97348523D01*
X130555501Y-97348523D01*
X130381632Y-97409000D01*
X130011215Y-97348523D02*
X129285501Y-97348523D01*
X129807108Y-98618523D02*
X129648358Y-97348523D01*
X128960441Y-98134714D02*
X127992822Y-98134714D01*
X126843774Y-98618523D02*
X127448536Y-98618523D01*
X127289786Y-97348523D01*
X126420441Y-98618523D02*
X126261691Y-97348523D01*
X125815679Y-98618523D02*
X125656929Y-97348523D01*
X125089965Y-98618523D01*
X124931215Y-97348523D01*
X124485203Y-98618523D02*
X124326453Y-97348523D01*
X123759489Y-98618523D02*
X124213060Y-97892809D01*
X123600739Y-97348523D02*
X124417167Y-98074238D01*
D11*
X112029714Y-96683285D02*
X112029714Y-96828428D01*
X112066000Y-96901000D01*
X112138571Y-96973571D01*
X112283714Y-97009857D01*
X112537714Y-97009857D01*
X112682857Y-96973571D01*
X112755428Y-96901000D01*
X112791714Y-96828428D01*
X112791714Y-96683285D01*
X112755428Y-96610714D01*
X112682857Y-96538142D01*
X112537714Y-96501857D01*
X112283714Y-96501857D01*
X112138571Y-96538142D01*
X112066000Y-96610714D01*
X112029714Y-96683285D01*
X112791714Y-97445285D02*
X112755428Y-97372714D01*
X112682857Y-97336428D01*
X112029714Y-97336428D01*
X112791714Y-98062142D02*
X112029714Y-98062142D01*
X112755428Y-98062142D02*
X112791714Y-97989571D01*
X112791714Y-97844428D01*
X112755428Y-97771857D01*
X112719142Y-97735571D01*
X112646571Y-97699285D01*
X112428857Y-97699285D01*
X112356285Y-97735571D01*
X112320000Y-97771857D01*
X112283714Y-97844428D01*
X112283714Y-97989571D01*
X112320000Y-98062142D01*
X112066000Y-98824142D02*
X112029714Y-98751571D01*
X112029714Y-98642714D01*
X112066000Y-98533857D01*
X112138571Y-98461285D01*
X112211142Y-98425000D01*
X112356285Y-98388714D01*
X112465142Y-98388714D01*
X112610285Y-98425000D01*
X112682857Y-98461285D01*
X112755428Y-98533857D01*
X112791714Y-98642714D01*
X112791714Y-98715285D01*
X112755428Y-98824142D01*
X112719142Y-98860428D01*
X112465142Y-98860428D01*
X112465142Y-98715285D01*
X112755428Y-99477285D02*
X112791714Y-99404714D01*
X112791714Y-99259571D01*
X112755428Y-99187000D01*
X112682857Y-99150714D01*
X112392571Y-99150714D01*
X112320000Y-99187000D01*
X112283714Y-99259571D01*
X112283714Y-99404714D01*
X112320000Y-99477285D01*
X112392571Y-99513571D01*
X112465142Y-99513571D01*
X112537714Y-99150714D01*
X112791714Y-99840142D02*
X112283714Y-99840142D01*
X112428857Y-99840142D02*
X112356285Y-99876428D01*
X112320000Y-99912714D01*
X112283714Y-99985285D01*
X112283714Y-100057857D01*
X112791714Y-100311857D02*
X112283714Y-100311857D01*
X112356285Y-100311857D02*
X112320000Y-100348142D01*
X112283714Y-100420714D01*
X112283714Y-100529571D01*
X112320000Y-100602142D01*
X112392571Y-100638428D01*
X112791714Y-100638428D01*
X112392571Y-100638428D02*
X112320000Y-100674714D01*
X112283714Y-100747285D01*
X112283714Y-100856142D01*
X112320000Y-100928714D01*
X112392571Y-100965000D01*
X112791714Y-100965000D01*
X112791714Y-101654428D02*
X112392571Y-101654428D01*
X112320000Y-101618142D01*
X112283714Y-101545571D01*
X112283714Y-101400428D01*
X112320000Y-101327857D01*
X112755428Y-101654428D02*
X112791714Y-101581857D01*
X112791714Y-101400428D01*
X112755428Y-101327857D01*
X112682857Y-101291571D01*
X112610285Y-101291571D01*
X112537714Y-101327857D01*
X112501428Y-101400428D01*
X112501428Y-101581857D01*
X112465142Y-101654428D01*
X112283714Y-102017285D02*
X112791714Y-102017285D01*
X112356285Y-102017285D02*
X112320000Y-102053571D01*
X112283714Y-102126142D01*
X112283714Y-102235000D01*
X112320000Y-102307571D01*
X112392571Y-102343857D01*
X112791714Y-102343857D01*
X113395285Y-97009857D02*
X113359000Y-97046142D01*
X113322714Y-97118714D01*
X113322714Y-97300142D01*
X113359000Y-97372714D01*
X113395285Y-97409000D01*
X113467857Y-97445285D01*
X113540428Y-97445285D01*
X113649285Y-97409000D01*
X114084714Y-96973571D01*
X114084714Y-97445285D01*
X113322714Y-97917000D02*
X113322714Y-97989571D01*
X113359000Y-98062142D01*
X113395285Y-98098428D01*
X113467857Y-98134714D01*
X113613000Y-98171000D01*
X113794428Y-98171000D01*
X113939571Y-98134714D01*
X114012142Y-98098428D01*
X114048428Y-98062142D01*
X114084714Y-97989571D01*
X114084714Y-97917000D01*
X114048428Y-97844428D01*
X114012142Y-97808142D01*
X113939571Y-97771857D01*
X113794428Y-97735571D01*
X113613000Y-97735571D01*
X113467857Y-97771857D01*
X113395285Y-97808142D01*
X113359000Y-97844428D01*
X113322714Y-97917000D01*
X113395285Y-98461285D02*
X113359000Y-98497571D01*
X113322714Y-98570142D01*
X113322714Y-98751571D01*
X113359000Y-98824142D01*
X113395285Y-98860428D01*
X113467857Y-98896714D01*
X113540428Y-98896714D01*
X113649285Y-98860428D01*
X114084714Y-98425000D01*
X114084714Y-98896714D01*
X114084714Y-99622428D02*
X114084714Y-99187000D01*
X114084714Y-99404714D02*
X113322714Y-99404714D01*
X113431571Y-99332142D01*
X113504142Y-99259571D01*
X113540428Y-99187000D01*
X113286428Y-100493285D02*
X114266142Y-99840142D01*
X113322714Y-100892428D02*
X113322714Y-100965000D01*
X113359000Y-101037571D01*
X113395285Y-101073857D01*
X113467857Y-101110142D01*
X113613000Y-101146428D01*
X113794428Y-101146428D01*
X113939571Y-101110142D01*
X114012142Y-101073857D01*
X114048428Y-101037571D01*
X114084714Y-100965000D01*
X114084714Y-100892428D01*
X114048428Y-100819857D01*
X114012142Y-100783571D01*
X113939571Y-100747285D01*
X113794428Y-100711000D01*
X113613000Y-100711000D01*
X113467857Y-100747285D01*
X113395285Y-100783571D01*
X113359000Y-100819857D01*
X113322714Y-100892428D01*
X113322714Y-101835857D02*
X113322714Y-101473000D01*
X113685571Y-101436714D01*
X113649285Y-101473000D01*
X113613000Y-101545571D01*
X113613000Y-101727000D01*
X113649285Y-101799571D01*
X113685571Y-101835857D01*
X113758142Y-101872142D01*
X113939571Y-101872142D01*
X114012142Y-101835857D01*
X114048428Y-101799571D01*
X114084714Y-101727000D01*
X114084714Y-101545571D01*
X114048428Y-101473000D01*
X114012142Y-101436714D01*
X135487228Y-94578714D02*
X135523514Y-94687571D01*
X135523514Y-94869000D01*
X135487228Y-94941571D01*
X135450942Y-94977857D01*
X135378371Y-95014142D01*
X135305800Y-95014142D01*
X135233228Y-94977857D01*
X135196942Y-94941571D01*
X135160657Y-94869000D01*
X135124371Y-94723857D01*
X135088085Y-94651285D01*
X135051800Y-94615000D01*
X134979228Y-94578714D01*
X134906657Y-94578714D01*
X134834085Y-94615000D01*
X134797800Y-94651285D01*
X134761514Y-94723857D01*
X134761514Y-94905285D01*
X134797800Y-95014142D01*
X134761514Y-95268142D02*
X135523514Y-95449571D01*
X134979228Y-95594714D01*
X135523514Y-95739857D01*
X134761514Y-95921285D01*
X134761514Y-96356714D02*
X134761514Y-96501857D01*
X134797800Y-96574428D01*
X134870371Y-96647000D01*
X135015514Y-96683285D01*
X135269514Y-96683285D01*
X135414657Y-96647000D01*
X135487228Y-96574428D01*
X135523514Y-96501857D01*
X135523514Y-96356714D01*
X135487228Y-96284142D01*
X135414657Y-96211571D01*
X135269514Y-96175285D01*
X135015514Y-96175285D01*
X134870371Y-96211571D01*
X134797800Y-96284142D01*
X134761514Y-96356714D01*
X135523514Y-97753714D02*
X135160657Y-97499714D01*
X135523514Y-97318285D02*
X134761514Y-97318285D01*
X134761514Y-97608571D01*
X134797800Y-97681142D01*
X134834085Y-97717428D01*
X134906657Y-97753714D01*
X135015514Y-97753714D01*
X135088085Y-97717428D01*
X135124371Y-97681142D01*
X135160657Y-97608571D01*
X135160657Y-97318285D01*
X135487228Y-98044000D02*
X135523514Y-98152857D01*
X135523514Y-98334285D01*
X135487228Y-98406857D01*
X135450942Y-98443142D01*
X135378371Y-98479428D01*
X135305800Y-98479428D01*
X135233228Y-98443142D01*
X135196942Y-98406857D01*
X135160657Y-98334285D01*
X135124371Y-98189142D01*
X135088085Y-98116571D01*
X135051800Y-98080285D01*
X134979228Y-98044000D01*
X134906657Y-98044000D01*
X134834085Y-98080285D01*
X134797800Y-98116571D01*
X134761514Y-98189142D01*
X134761514Y-98370571D01*
X134797800Y-98479428D01*
X134761514Y-98697142D02*
X134761514Y-99132571D01*
X135523514Y-98914857D02*
X134761514Y-98914857D01*
X135523514Y-100584000D02*
X135160657Y-100330000D01*
X135523514Y-100148571D02*
X134761514Y-100148571D01*
X134761514Y-100438857D01*
X134797800Y-100511428D01*
X134834085Y-100547714D01*
X134906657Y-100584000D01*
X135015514Y-100584000D01*
X135088085Y-100547714D01*
X135124371Y-100511428D01*
X135160657Y-100438857D01*
X135160657Y-100148571D01*
X134761514Y-100838000D02*
X135523514Y-101346000D01*
X134761514Y-101346000D02*
X135523514Y-100838000D01*
X134761514Y-102670428D02*
X134761514Y-103105857D01*
X135523514Y-102888142D02*
X134761514Y-102888142D01*
X134761514Y-103287285D02*
X135523514Y-103795285D01*
X134761514Y-103795285D02*
X135523514Y-103287285D01*
D10*
%TO.C,REF\u002A\u002A*%
X110261400Y-99974400D02*
X111379000Y-100457000D01*
X111175800Y-99085400D02*
X110261400Y-99974400D01*
X111099600Y-100101400D02*
X111175800Y-99085400D01*
X110185200Y-99187000D02*
X111099600Y-100101400D01*
X110109000Y-100025200D02*
X110185200Y-99187000D01*
X108077000Y-99441000D02*
X110109000Y-100025200D01*
X108077000Y-99441000D02*
X111379000Y-98806000D01*
%TO.C,Y1*%
X125527000Y-102002400D02*
X125527000Y-101705600D01*
X126803200Y-103104000D02*
X127450800Y-103104000D01*
X128727000Y-102002400D02*
X128727000Y-101705600D01*
X126828600Y-100604000D02*
X127425400Y-100604000D01*
D12*
%TO.C,C5*%
X129207800Y-101865820D02*
X129207800Y-102146980D01*
X130227800Y-101865820D02*
X130227800Y-102146980D01*
%TO.C,C7*%
X132017380Y-100709000D02*
X131736220Y-100709000D01*
X132017380Y-101729000D02*
X131736220Y-101729000D01*
%TO.C,R14*%
X131588742Y-103011500D02*
X132063258Y-103011500D01*
X131588742Y-101966500D02*
X132063258Y-101966500D01*
%TO.C,C4*%
X120267000Y-96633420D02*
X120267000Y-96914580D01*
X121287000Y-96633420D02*
X121287000Y-96914580D01*
%TO.C,U2*%
X115915800Y-101103000D02*
X115915800Y-99303000D01*
X119135800Y-99303000D02*
X119135800Y-101753000D01*
%TO.C,R1*%
X126889742Y-96153500D02*
X127364258Y-96153500D01*
X126889742Y-95108500D02*
X127364258Y-95108500D01*
%TO.C,C2*%
X117666380Y-102233000D02*
X117385220Y-102233000D01*
X117666380Y-103253000D02*
X117385220Y-103253000D01*
%TO.C,Q1*%
X119197000Y-101094000D02*
X120127000Y-101094000D01*
X122357000Y-101094000D02*
X121427000Y-101094000D01*
X122357000Y-101094000D02*
X122357000Y-103254000D01*
X119197000Y-101094000D02*
X119197000Y-102554000D01*
%TO.C,R27*%
X133462500Y-98568742D02*
X133462500Y-99043258D01*
X134507500Y-98568742D02*
X134507500Y-99043258D01*
%TO.C,R25*%
X130285258Y-95108500D02*
X129810742Y-95108500D01*
X130285258Y-96153500D02*
X129810742Y-96153500D01*
%TO.C,R23*%
X133462500Y-101362742D02*
X133462500Y-101837258D01*
X134507500Y-101362742D02*
X134507500Y-101837258D01*
%TO.C,R6*%
X123257542Y-100471500D02*
X123732058Y-100471500D01*
X123257542Y-99426500D02*
X123732058Y-99426500D01*
%TO.C,R3*%
X123458500Y-102218258D02*
X123458500Y-101743742D01*
X122413500Y-102218258D02*
X122413500Y-101743742D01*
%TO.C,C3*%
X127826380Y-99058000D02*
X127545220Y-99058000D01*
X127826380Y-100078000D02*
X127545220Y-100078000D01*
%TO.C,R5*%
X117288542Y-95645500D02*
X117763058Y-95645500D01*
X117288542Y-94600500D02*
X117763058Y-94600500D01*
%TO.C,R4*%
X117288542Y-96915500D02*
X117763058Y-96915500D01*
X117288542Y-95870500D02*
X117763058Y-95870500D01*
%TO.C,C11*%
X133082420Y-97157000D02*
X133363580Y-97157000D01*
X133082420Y-96137000D02*
X133363580Y-96137000D01*
%TO.C,C14*%
X124716000Y-102121580D02*
X124716000Y-101840420D01*
X123696000Y-102121580D02*
X123696000Y-101840420D01*
%TO.C,C13*%
X120904580Y-98550000D02*
X120623420Y-98550000D01*
X120904580Y-99570000D02*
X120623420Y-99570000D01*
%TO.C,C9*%
X117666380Y-97153000D02*
X117385220Y-97153000D01*
X117666380Y-98173000D02*
X117385220Y-98173000D01*
%TD*%
M02*
