%TF.GenerationSoftware,KiCad,Pcbnew,(5.1.9)-1*%
%TF.CreationDate,2021-05-26T15:31:28+08:00*%
%TF.ProjectId,ST-LINK_ODG,53542d4c-494e-44b5-9f4f-44472e6b6963,rev?*%
%TF.SameCoordinates,Original*%
%TF.FileFunction,Soldermask,Top*%
%TF.FilePolarity,Negative*%
%FSLAX46Y46*%
G04 Gerber Fmt 4.6, Leading zero omitted, Abs format (unit mm)*
G04 Created by KiCad (PCBNEW (5.1.9)-1) date 2021-05-26 15:31:28*
%MOMM*%
%LPD*%
G01*
G04 APERTURE LIST*
%ADD10O,2.150800X1.050800*%
%ADD11O,1.650800X1.050800*%
%ADD12C,0.700800*%
%ADD13C,0.100000*%
G04 APERTURE END LIST*
%TO.C,F1*%
G36*
G01*
X117201200Y-103490050D02*
X117201200Y-104027950D01*
G75*
G02*
X116969750Y-104259400I-231450J0D01*
G01*
X116506850Y-104259400D01*
G75*
G02*
X116275400Y-104027950I0J231450D01*
G01*
X116275400Y-103490050D01*
G75*
G02*
X116506850Y-103258600I231450J0D01*
G01*
X116969750Y-103258600D01*
G75*
G02*
X117201200Y-103490050I0J-231450D01*
G01*
G37*
G36*
G01*
X118776200Y-103490050D02*
X118776200Y-104027950D01*
G75*
G02*
X118544750Y-104259400I-231450J0D01*
G01*
X118081850Y-104259400D01*
G75*
G02*
X117850400Y-104027950I0J231450D01*
G01*
X117850400Y-103490050D01*
G75*
G02*
X118081850Y-103258600I231450J0D01*
G01*
X118544750Y-103258600D01*
G75*
G02*
X118776200Y-103490050I0J-231450D01*
G01*
G37*
%TD*%
%TO.C,U1*%
G36*
G01*
X124757000Y-103341400D02*
X124606600Y-103341400D01*
G75*
G02*
X124531400Y-103266200I0J75200D01*
G01*
X124531400Y-102515800D01*
G75*
G02*
X124606600Y-102440600I75200J0D01*
G01*
X124757000Y-102440600D01*
G75*
G02*
X124832200Y-102515800I0J-75200D01*
G01*
X124832200Y-103266200D01*
G75*
G02*
X124757000Y-103341400I-75200J0D01*
G01*
G37*
G36*
G01*
X125257000Y-103341400D02*
X125106600Y-103341400D01*
G75*
G02*
X125031400Y-103266200I0J75200D01*
G01*
X125031400Y-102515800D01*
G75*
G02*
X125106600Y-102440600I75200J0D01*
G01*
X125257000Y-102440600D01*
G75*
G02*
X125332200Y-102515800I0J-75200D01*
G01*
X125332200Y-103266200D01*
G75*
G02*
X125257000Y-103341400I-75200J0D01*
G01*
G37*
G36*
G01*
X125757000Y-103341400D02*
X125606600Y-103341400D01*
G75*
G02*
X125531400Y-103266200I0J75200D01*
G01*
X125531400Y-102515800D01*
G75*
G02*
X125606600Y-102440600I75200J0D01*
G01*
X125757000Y-102440600D01*
G75*
G02*
X125832200Y-102515800I0J-75200D01*
G01*
X125832200Y-103266200D01*
G75*
G02*
X125757000Y-103341400I-75200J0D01*
G01*
G37*
G36*
G01*
X126257000Y-103341400D02*
X126106600Y-103341400D01*
G75*
G02*
X126031400Y-103266200I0J75200D01*
G01*
X126031400Y-102515800D01*
G75*
G02*
X126106600Y-102440600I75200J0D01*
G01*
X126257000Y-102440600D01*
G75*
G02*
X126332200Y-102515800I0J-75200D01*
G01*
X126332200Y-103266200D01*
G75*
G02*
X126257000Y-103341400I-75200J0D01*
G01*
G37*
G36*
G01*
X126757000Y-103341400D02*
X126606600Y-103341400D01*
G75*
G02*
X126531400Y-103266200I0J75200D01*
G01*
X126531400Y-102515800D01*
G75*
G02*
X126606600Y-102440600I75200J0D01*
G01*
X126757000Y-102440600D01*
G75*
G02*
X126832200Y-102515800I0J-75200D01*
G01*
X126832200Y-103266200D01*
G75*
G02*
X126757000Y-103341400I-75200J0D01*
G01*
G37*
G36*
G01*
X127257000Y-103341400D02*
X127106600Y-103341400D01*
G75*
G02*
X127031400Y-103266200I0J75200D01*
G01*
X127031400Y-102515800D01*
G75*
G02*
X127106600Y-102440600I75200J0D01*
G01*
X127257000Y-102440600D01*
G75*
G02*
X127332200Y-102515800I0J-75200D01*
G01*
X127332200Y-103266200D01*
G75*
G02*
X127257000Y-103341400I-75200J0D01*
G01*
G37*
G36*
G01*
X127757000Y-103341400D02*
X127606600Y-103341400D01*
G75*
G02*
X127531400Y-103266200I0J75200D01*
G01*
X127531400Y-102515800D01*
G75*
G02*
X127606600Y-102440600I75200J0D01*
G01*
X127757000Y-102440600D01*
G75*
G02*
X127832200Y-102515800I0J-75200D01*
G01*
X127832200Y-103266200D01*
G75*
G02*
X127757000Y-103341400I-75200J0D01*
G01*
G37*
G36*
G01*
X128257000Y-103341400D02*
X128106600Y-103341400D01*
G75*
G02*
X128031400Y-103266200I0J75200D01*
G01*
X128031400Y-102515800D01*
G75*
G02*
X128106600Y-102440600I75200J0D01*
G01*
X128257000Y-102440600D01*
G75*
G02*
X128332200Y-102515800I0J-75200D01*
G01*
X128332200Y-103266200D01*
G75*
G02*
X128257000Y-103341400I-75200J0D01*
G01*
G37*
G36*
G01*
X128757000Y-103341400D02*
X128606600Y-103341400D01*
G75*
G02*
X128531400Y-103266200I0J75200D01*
G01*
X128531400Y-102515800D01*
G75*
G02*
X128606600Y-102440600I75200J0D01*
G01*
X128757000Y-102440600D01*
G75*
G02*
X128832200Y-102515800I0J-75200D01*
G01*
X128832200Y-103266200D01*
G75*
G02*
X128757000Y-103341400I-75200J0D01*
G01*
G37*
G36*
G01*
X129257000Y-103341400D02*
X129106600Y-103341400D01*
G75*
G02*
X129031400Y-103266200I0J75200D01*
G01*
X129031400Y-102515800D01*
G75*
G02*
X129106600Y-102440600I75200J0D01*
G01*
X129257000Y-102440600D01*
G75*
G02*
X129332200Y-102515800I0J-75200D01*
G01*
X129332200Y-103266200D01*
G75*
G02*
X129257000Y-103341400I-75200J0D01*
G01*
G37*
G36*
G01*
X129757000Y-103341400D02*
X129606600Y-103341400D01*
G75*
G02*
X129531400Y-103266200I0J75200D01*
G01*
X129531400Y-102515800D01*
G75*
G02*
X129606600Y-102440600I75200J0D01*
G01*
X129757000Y-102440600D01*
G75*
G02*
X129832200Y-102515800I0J-75200D01*
G01*
X129832200Y-103266200D01*
G75*
G02*
X129757000Y-103341400I-75200J0D01*
G01*
G37*
G36*
G01*
X130257000Y-103341400D02*
X130106600Y-103341400D01*
G75*
G02*
X130031400Y-103266200I0J75200D01*
G01*
X130031400Y-102515800D01*
G75*
G02*
X130106600Y-102440600I75200J0D01*
G01*
X130257000Y-102440600D01*
G75*
G02*
X130332200Y-102515800I0J-75200D01*
G01*
X130332200Y-103266200D01*
G75*
G02*
X130257000Y-103341400I-75200J0D01*
G01*
G37*
G36*
G01*
X131257000Y-102341400D02*
X130506600Y-102341400D01*
G75*
G02*
X130431400Y-102266200I0J75200D01*
G01*
X130431400Y-102115800D01*
G75*
G02*
X130506600Y-102040600I75200J0D01*
G01*
X131257000Y-102040600D01*
G75*
G02*
X131332200Y-102115800I0J-75200D01*
G01*
X131332200Y-102266200D01*
G75*
G02*
X131257000Y-102341400I-75200J0D01*
G01*
G37*
G36*
G01*
X131257000Y-101841400D02*
X130506600Y-101841400D01*
G75*
G02*
X130431400Y-101766200I0J75200D01*
G01*
X130431400Y-101615800D01*
G75*
G02*
X130506600Y-101540600I75200J0D01*
G01*
X131257000Y-101540600D01*
G75*
G02*
X131332200Y-101615800I0J-75200D01*
G01*
X131332200Y-101766200D01*
G75*
G02*
X131257000Y-101841400I-75200J0D01*
G01*
G37*
G36*
G01*
X131257000Y-101341400D02*
X130506600Y-101341400D01*
G75*
G02*
X130431400Y-101266200I0J75200D01*
G01*
X130431400Y-101115800D01*
G75*
G02*
X130506600Y-101040600I75200J0D01*
G01*
X131257000Y-101040600D01*
G75*
G02*
X131332200Y-101115800I0J-75200D01*
G01*
X131332200Y-101266200D01*
G75*
G02*
X131257000Y-101341400I-75200J0D01*
G01*
G37*
G36*
G01*
X131257000Y-100841400D02*
X130506600Y-100841400D01*
G75*
G02*
X130431400Y-100766200I0J75200D01*
G01*
X130431400Y-100615800D01*
G75*
G02*
X130506600Y-100540600I75200J0D01*
G01*
X131257000Y-100540600D01*
G75*
G02*
X131332200Y-100615800I0J-75200D01*
G01*
X131332200Y-100766200D01*
G75*
G02*
X131257000Y-100841400I-75200J0D01*
G01*
G37*
G36*
G01*
X131257000Y-100341400D02*
X130506600Y-100341400D01*
G75*
G02*
X130431400Y-100266200I0J75200D01*
G01*
X130431400Y-100115800D01*
G75*
G02*
X130506600Y-100040600I75200J0D01*
G01*
X131257000Y-100040600D01*
G75*
G02*
X131332200Y-100115800I0J-75200D01*
G01*
X131332200Y-100266200D01*
G75*
G02*
X131257000Y-100341400I-75200J0D01*
G01*
G37*
G36*
G01*
X131257000Y-99841400D02*
X130506600Y-99841400D01*
G75*
G02*
X130431400Y-99766200I0J75200D01*
G01*
X130431400Y-99615800D01*
G75*
G02*
X130506600Y-99540600I75200J0D01*
G01*
X131257000Y-99540600D01*
G75*
G02*
X131332200Y-99615800I0J-75200D01*
G01*
X131332200Y-99766200D01*
G75*
G02*
X131257000Y-99841400I-75200J0D01*
G01*
G37*
G36*
G01*
X131257000Y-99341400D02*
X130506600Y-99341400D01*
G75*
G02*
X130431400Y-99266200I0J75200D01*
G01*
X130431400Y-99115800D01*
G75*
G02*
X130506600Y-99040600I75200J0D01*
G01*
X131257000Y-99040600D01*
G75*
G02*
X131332200Y-99115800I0J-75200D01*
G01*
X131332200Y-99266200D01*
G75*
G02*
X131257000Y-99341400I-75200J0D01*
G01*
G37*
G36*
G01*
X131257000Y-98841400D02*
X130506600Y-98841400D01*
G75*
G02*
X130431400Y-98766200I0J75200D01*
G01*
X130431400Y-98615800D01*
G75*
G02*
X130506600Y-98540600I75200J0D01*
G01*
X131257000Y-98540600D01*
G75*
G02*
X131332200Y-98615800I0J-75200D01*
G01*
X131332200Y-98766200D01*
G75*
G02*
X131257000Y-98841400I-75200J0D01*
G01*
G37*
G36*
G01*
X131257000Y-98341400D02*
X130506600Y-98341400D01*
G75*
G02*
X130431400Y-98266200I0J75200D01*
G01*
X130431400Y-98115800D01*
G75*
G02*
X130506600Y-98040600I75200J0D01*
G01*
X131257000Y-98040600D01*
G75*
G02*
X131332200Y-98115800I0J-75200D01*
G01*
X131332200Y-98266200D01*
G75*
G02*
X131257000Y-98341400I-75200J0D01*
G01*
G37*
G36*
G01*
X131257000Y-97841400D02*
X130506600Y-97841400D01*
G75*
G02*
X130431400Y-97766200I0J75200D01*
G01*
X130431400Y-97615800D01*
G75*
G02*
X130506600Y-97540600I75200J0D01*
G01*
X131257000Y-97540600D01*
G75*
G02*
X131332200Y-97615800I0J-75200D01*
G01*
X131332200Y-97766200D01*
G75*
G02*
X131257000Y-97841400I-75200J0D01*
G01*
G37*
G36*
G01*
X131257000Y-97341400D02*
X130506600Y-97341400D01*
G75*
G02*
X130431400Y-97266200I0J75200D01*
G01*
X130431400Y-97115800D01*
G75*
G02*
X130506600Y-97040600I75200J0D01*
G01*
X131257000Y-97040600D01*
G75*
G02*
X131332200Y-97115800I0J-75200D01*
G01*
X131332200Y-97266200D01*
G75*
G02*
X131257000Y-97341400I-75200J0D01*
G01*
G37*
G36*
G01*
X131257000Y-96841400D02*
X130506600Y-96841400D01*
G75*
G02*
X130431400Y-96766200I0J75200D01*
G01*
X130431400Y-96615800D01*
G75*
G02*
X130506600Y-96540600I75200J0D01*
G01*
X131257000Y-96540600D01*
G75*
G02*
X131332200Y-96615800I0J-75200D01*
G01*
X131332200Y-96766200D01*
G75*
G02*
X131257000Y-96841400I-75200J0D01*
G01*
G37*
G36*
G01*
X130257000Y-96441400D02*
X130106600Y-96441400D01*
G75*
G02*
X130031400Y-96366200I0J75200D01*
G01*
X130031400Y-95615800D01*
G75*
G02*
X130106600Y-95540600I75200J0D01*
G01*
X130257000Y-95540600D01*
G75*
G02*
X130332200Y-95615800I0J-75200D01*
G01*
X130332200Y-96366200D01*
G75*
G02*
X130257000Y-96441400I-75200J0D01*
G01*
G37*
G36*
G01*
X129757000Y-96441400D02*
X129606600Y-96441400D01*
G75*
G02*
X129531400Y-96366200I0J75200D01*
G01*
X129531400Y-95615800D01*
G75*
G02*
X129606600Y-95540600I75200J0D01*
G01*
X129757000Y-95540600D01*
G75*
G02*
X129832200Y-95615800I0J-75200D01*
G01*
X129832200Y-96366200D01*
G75*
G02*
X129757000Y-96441400I-75200J0D01*
G01*
G37*
G36*
G01*
X129257000Y-96441400D02*
X129106600Y-96441400D01*
G75*
G02*
X129031400Y-96366200I0J75200D01*
G01*
X129031400Y-95615800D01*
G75*
G02*
X129106600Y-95540600I75200J0D01*
G01*
X129257000Y-95540600D01*
G75*
G02*
X129332200Y-95615800I0J-75200D01*
G01*
X129332200Y-96366200D01*
G75*
G02*
X129257000Y-96441400I-75200J0D01*
G01*
G37*
G36*
G01*
X128757000Y-96441400D02*
X128606600Y-96441400D01*
G75*
G02*
X128531400Y-96366200I0J75200D01*
G01*
X128531400Y-95615800D01*
G75*
G02*
X128606600Y-95540600I75200J0D01*
G01*
X128757000Y-95540600D01*
G75*
G02*
X128832200Y-95615800I0J-75200D01*
G01*
X128832200Y-96366200D01*
G75*
G02*
X128757000Y-96441400I-75200J0D01*
G01*
G37*
G36*
G01*
X128257000Y-96441400D02*
X128106600Y-96441400D01*
G75*
G02*
X128031400Y-96366200I0J75200D01*
G01*
X128031400Y-95615800D01*
G75*
G02*
X128106600Y-95540600I75200J0D01*
G01*
X128257000Y-95540600D01*
G75*
G02*
X128332200Y-95615800I0J-75200D01*
G01*
X128332200Y-96366200D01*
G75*
G02*
X128257000Y-96441400I-75200J0D01*
G01*
G37*
G36*
G01*
X127757000Y-96441400D02*
X127606600Y-96441400D01*
G75*
G02*
X127531400Y-96366200I0J75200D01*
G01*
X127531400Y-95615800D01*
G75*
G02*
X127606600Y-95540600I75200J0D01*
G01*
X127757000Y-95540600D01*
G75*
G02*
X127832200Y-95615800I0J-75200D01*
G01*
X127832200Y-96366200D01*
G75*
G02*
X127757000Y-96441400I-75200J0D01*
G01*
G37*
G36*
G01*
X127257000Y-96441400D02*
X127106600Y-96441400D01*
G75*
G02*
X127031400Y-96366200I0J75200D01*
G01*
X127031400Y-95615800D01*
G75*
G02*
X127106600Y-95540600I75200J0D01*
G01*
X127257000Y-95540600D01*
G75*
G02*
X127332200Y-95615800I0J-75200D01*
G01*
X127332200Y-96366200D01*
G75*
G02*
X127257000Y-96441400I-75200J0D01*
G01*
G37*
G36*
G01*
X126757000Y-96441400D02*
X126606600Y-96441400D01*
G75*
G02*
X126531400Y-96366200I0J75200D01*
G01*
X126531400Y-95615800D01*
G75*
G02*
X126606600Y-95540600I75200J0D01*
G01*
X126757000Y-95540600D01*
G75*
G02*
X126832200Y-95615800I0J-75200D01*
G01*
X126832200Y-96366200D01*
G75*
G02*
X126757000Y-96441400I-75200J0D01*
G01*
G37*
G36*
G01*
X126257000Y-96441400D02*
X126106600Y-96441400D01*
G75*
G02*
X126031400Y-96366200I0J75200D01*
G01*
X126031400Y-95615800D01*
G75*
G02*
X126106600Y-95540600I75200J0D01*
G01*
X126257000Y-95540600D01*
G75*
G02*
X126332200Y-95615800I0J-75200D01*
G01*
X126332200Y-96366200D01*
G75*
G02*
X126257000Y-96441400I-75200J0D01*
G01*
G37*
G36*
G01*
X125757000Y-96441400D02*
X125606600Y-96441400D01*
G75*
G02*
X125531400Y-96366200I0J75200D01*
G01*
X125531400Y-95615800D01*
G75*
G02*
X125606600Y-95540600I75200J0D01*
G01*
X125757000Y-95540600D01*
G75*
G02*
X125832200Y-95615800I0J-75200D01*
G01*
X125832200Y-96366200D01*
G75*
G02*
X125757000Y-96441400I-75200J0D01*
G01*
G37*
G36*
G01*
X125257000Y-96441400D02*
X125106600Y-96441400D01*
G75*
G02*
X125031400Y-96366200I0J75200D01*
G01*
X125031400Y-95615800D01*
G75*
G02*
X125106600Y-95540600I75200J0D01*
G01*
X125257000Y-95540600D01*
G75*
G02*
X125332200Y-95615800I0J-75200D01*
G01*
X125332200Y-96366200D01*
G75*
G02*
X125257000Y-96441400I-75200J0D01*
G01*
G37*
G36*
G01*
X124757000Y-96441400D02*
X124606600Y-96441400D01*
G75*
G02*
X124531400Y-96366200I0J75200D01*
G01*
X124531400Y-95615800D01*
G75*
G02*
X124606600Y-95540600I75200J0D01*
G01*
X124757000Y-95540600D01*
G75*
G02*
X124832200Y-95615800I0J-75200D01*
G01*
X124832200Y-96366200D01*
G75*
G02*
X124757000Y-96441400I-75200J0D01*
G01*
G37*
G36*
G01*
X124357000Y-96841400D02*
X123606600Y-96841400D01*
G75*
G02*
X123531400Y-96766200I0J75200D01*
G01*
X123531400Y-96615800D01*
G75*
G02*
X123606600Y-96540600I75200J0D01*
G01*
X124357000Y-96540600D01*
G75*
G02*
X124432200Y-96615800I0J-75200D01*
G01*
X124432200Y-96766200D01*
G75*
G02*
X124357000Y-96841400I-75200J0D01*
G01*
G37*
G36*
G01*
X124357000Y-97341400D02*
X123606600Y-97341400D01*
G75*
G02*
X123531400Y-97266200I0J75200D01*
G01*
X123531400Y-97115800D01*
G75*
G02*
X123606600Y-97040600I75200J0D01*
G01*
X124357000Y-97040600D01*
G75*
G02*
X124432200Y-97115800I0J-75200D01*
G01*
X124432200Y-97266200D01*
G75*
G02*
X124357000Y-97341400I-75200J0D01*
G01*
G37*
G36*
G01*
X124357000Y-97841400D02*
X123606600Y-97841400D01*
G75*
G02*
X123531400Y-97766200I0J75200D01*
G01*
X123531400Y-97615800D01*
G75*
G02*
X123606600Y-97540600I75200J0D01*
G01*
X124357000Y-97540600D01*
G75*
G02*
X124432200Y-97615800I0J-75200D01*
G01*
X124432200Y-97766200D01*
G75*
G02*
X124357000Y-97841400I-75200J0D01*
G01*
G37*
G36*
G01*
X124357000Y-98341400D02*
X123606600Y-98341400D01*
G75*
G02*
X123531400Y-98266200I0J75200D01*
G01*
X123531400Y-98115800D01*
G75*
G02*
X123606600Y-98040600I75200J0D01*
G01*
X124357000Y-98040600D01*
G75*
G02*
X124432200Y-98115800I0J-75200D01*
G01*
X124432200Y-98266200D01*
G75*
G02*
X124357000Y-98341400I-75200J0D01*
G01*
G37*
G36*
G01*
X124357000Y-98841400D02*
X123606600Y-98841400D01*
G75*
G02*
X123531400Y-98766200I0J75200D01*
G01*
X123531400Y-98615800D01*
G75*
G02*
X123606600Y-98540600I75200J0D01*
G01*
X124357000Y-98540600D01*
G75*
G02*
X124432200Y-98615800I0J-75200D01*
G01*
X124432200Y-98766200D01*
G75*
G02*
X124357000Y-98841400I-75200J0D01*
G01*
G37*
G36*
G01*
X124357000Y-99341400D02*
X123606600Y-99341400D01*
G75*
G02*
X123531400Y-99266200I0J75200D01*
G01*
X123531400Y-99115800D01*
G75*
G02*
X123606600Y-99040600I75200J0D01*
G01*
X124357000Y-99040600D01*
G75*
G02*
X124432200Y-99115800I0J-75200D01*
G01*
X124432200Y-99266200D01*
G75*
G02*
X124357000Y-99341400I-75200J0D01*
G01*
G37*
G36*
G01*
X124357000Y-99841400D02*
X123606600Y-99841400D01*
G75*
G02*
X123531400Y-99766200I0J75200D01*
G01*
X123531400Y-99615800D01*
G75*
G02*
X123606600Y-99540600I75200J0D01*
G01*
X124357000Y-99540600D01*
G75*
G02*
X124432200Y-99615800I0J-75200D01*
G01*
X124432200Y-99766200D01*
G75*
G02*
X124357000Y-99841400I-75200J0D01*
G01*
G37*
G36*
G01*
X124357000Y-100341400D02*
X123606600Y-100341400D01*
G75*
G02*
X123531400Y-100266200I0J75200D01*
G01*
X123531400Y-100115800D01*
G75*
G02*
X123606600Y-100040600I75200J0D01*
G01*
X124357000Y-100040600D01*
G75*
G02*
X124432200Y-100115800I0J-75200D01*
G01*
X124432200Y-100266200D01*
G75*
G02*
X124357000Y-100341400I-75200J0D01*
G01*
G37*
G36*
G01*
X124357000Y-100841400D02*
X123606600Y-100841400D01*
G75*
G02*
X123531400Y-100766200I0J75200D01*
G01*
X123531400Y-100615800D01*
G75*
G02*
X123606600Y-100540600I75200J0D01*
G01*
X124357000Y-100540600D01*
G75*
G02*
X124432200Y-100615800I0J-75200D01*
G01*
X124432200Y-100766200D01*
G75*
G02*
X124357000Y-100841400I-75200J0D01*
G01*
G37*
G36*
G01*
X124357000Y-101341400D02*
X123606600Y-101341400D01*
G75*
G02*
X123531400Y-101266200I0J75200D01*
G01*
X123531400Y-101115800D01*
G75*
G02*
X123606600Y-101040600I75200J0D01*
G01*
X124357000Y-101040600D01*
G75*
G02*
X124432200Y-101115800I0J-75200D01*
G01*
X124432200Y-101266200D01*
G75*
G02*
X124357000Y-101341400I-75200J0D01*
G01*
G37*
G36*
G01*
X124357000Y-101841400D02*
X123606600Y-101841400D01*
G75*
G02*
X123531400Y-101766200I0J75200D01*
G01*
X123531400Y-101615800D01*
G75*
G02*
X123606600Y-101540600I75200J0D01*
G01*
X124357000Y-101540600D01*
G75*
G02*
X124432200Y-101615800I0J-75200D01*
G01*
X124432200Y-101766200D01*
G75*
G02*
X124357000Y-101841400I-75200J0D01*
G01*
G37*
G36*
G01*
X124357000Y-102341400D02*
X123606600Y-102341400D01*
G75*
G02*
X123531400Y-102266200I0J75200D01*
G01*
X123531400Y-102115800D01*
G75*
G02*
X123606600Y-102040600I75200J0D01*
G01*
X124357000Y-102040600D01*
G75*
G02*
X124432200Y-102115800I0J-75200D01*
G01*
X124432200Y-102266200D01*
G75*
G02*
X124357000Y-102341400I-75200J0D01*
G01*
G37*
G36*
G01*
X129876984Y-102191400D02*
X124986616Y-102191400D01*
G75*
G02*
X124681400Y-101886184I0J305216D01*
G01*
X124681400Y-96995816D01*
G75*
G02*
X124986616Y-96690600I305216J0D01*
G01*
X129876984Y-96690600D01*
G75*
G02*
X130182200Y-96995816I0J-305216D01*
G01*
X130182200Y-101886184D01*
G75*
G02*
X129876984Y-102191400I-305216J0D01*
G01*
G37*
%TD*%
%TO.C,D1*%
G36*
G01*
X115650400Y-95651700D02*
X115650400Y-95126300D01*
G75*
G02*
X115913100Y-94863600I262700J0D01*
G01*
X116638500Y-94863600D01*
G75*
G02*
X116901200Y-95126300I0J-262700D01*
G01*
X116901200Y-95651700D01*
G75*
G02*
X116638500Y-95914400I-262700J0D01*
G01*
X115913100Y-95914400D01*
G75*
G02*
X115650400Y-95651700I0J262700D01*
G01*
G37*
G36*
G01*
X118150400Y-95651700D02*
X118150400Y-95126300D01*
G75*
G02*
X118413100Y-94863600I262700J0D01*
G01*
X119138500Y-94863600D01*
G75*
G02*
X119401200Y-95126300I0J-262700D01*
G01*
X119401200Y-95651700D01*
G75*
G02*
X119138500Y-95914400I-262700J0D01*
G01*
X118413100Y-95914400D01*
G75*
G02*
X118150400Y-95651700I0J262700D01*
G01*
G37*
G36*
G01*
X118150400Y-97151700D02*
X118150400Y-96626300D01*
G75*
G02*
X118413100Y-96363600I262700J0D01*
G01*
X119138500Y-96363600D01*
G75*
G02*
X119401200Y-96626300I0J-262700D01*
G01*
X119401200Y-97151700D01*
G75*
G02*
X119138500Y-97414400I-262700J0D01*
G01*
X118413100Y-97414400D01*
G75*
G02*
X118150400Y-97151700I0J262700D01*
G01*
G37*
G36*
G01*
X115650400Y-97151700D02*
X115650400Y-96626300D01*
G75*
G02*
X115913100Y-96363600I262700J0D01*
G01*
X116638500Y-96363600D01*
G75*
G02*
X116901200Y-96626300I0J-262700D01*
G01*
X116901200Y-97151700D01*
G75*
G02*
X116638500Y-97414400I-262700J0D01*
G01*
X115913100Y-97414400D01*
G75*
G02*
X115650400Y-97151700I0J262700D01*
G01*
G37*
%TD*%
D10*
%TO.C,J3*%
X113772800Y-95121000D03*
X113772800Y-103761000D03*
D11*
X109592800Y-95121000D03*
X109592800Y-103761000D03*
D12*
X113272800Y-102331000D03*
X113272800Y-96551000D03*
G36*
G01*
X113762800Y-102315600D02*
X114912800Y-102315600D01*
G75*
G02*
X114938200Y-102341000I0J-25400D01*
G01*
X114938200Y-102641000D01*
G75*
G02*
X114912800Y-102666400I-25400J0D01*
G01*
X113762800Y-102666400D01*
G75*
G02*
X113737400Y-102641000I0J25400D01*
G01*
X113737400Y-102341000D01*
G75*
G02*
X113762800Y-102315600I25400J0D01*
G01*
G37*
G36*
G01*
X113762800Y-101515600D02*
X114912800Y-101515600D01*
G75*
G02*
X114938200Y-101541000I0J-25400D01*
G01*
X114938200Y-101841000D01*
G75*
G02*
X114912800Y-101866400I-25400J0D01*
G01*
X113762800Y-101866400D01*
G75*
G02*
X113737400Y-101841000I0J25400D01*
G01*
X113737400Y-101541000D01*
G75*
G02*
X113762800Y-101515600I25400J0D01*
G01*
G37*
G36*
G01*
X113762800Y-101015600D02*
X114912800Y-101015600D01*
G75*
G02*
X114938200Y-101041000I0J-25400D01*
G01*
X114938200Y-101341000D01*
G75*
G02*
X114912800Y-101366400I-25400J0D01*
G01*
X113762800Y-101366400D01*
G75*
G02*
X113737400Y-101341000I0J25400D01*
G01*
X113737400Y-101041000D01*
G75*
G02*
X113762800Y-101015600I25400J0D01*
G01*
G37*
G36*
G01*
X113762800Y-100515600D02*
X114912800Y-100515600D01*
G75*
G02*
X114938200Y-100541000I0J-25400D01*
G01*
X114938200Y-100841000D01*
G75*
G02*
X114912800Y-100866400I-25400J0D01*
G01*
X113762800Y-100866400D01*
G75*
G02*
X113737400Y-100841000I0J25400D01*
G01*
X113737400Y-100541000D01*
G75*
G02*
X113762800Y-100515600I25400J0D01*
G01*
G37*
G36*
G01*
X113762800Y-100015600D02*
X114912800Y-100015600D01*
G75*
G02*
X114938200Y-100041000I0J-25400D01*
G01*
X114938200Y-100341000D01*
G75*
G02*
X114912800Y-100366400I-25400J0D01*
G01*
X113762800Y-100366400D01*
G75*
G02*
X113737400Y-100341000I0J25400D01*
G01*
X113737400Y-100041000D01*
G75*
G02*
X113762800Y-100015600I25400J0D01*
G01*
G37*
G36*
G01*
X113762800Y-99515600D02*
X114912800Y-99515600D01*
G75*
G02*
X114938200Y-99541000I0J-25400D01*
G01*
X114938200Y-99841000D01*
G75*
G02*
X114912800Y-99866400I-25400J0D01*
G01*
X113762800Y-99866400D01*
G75*
G02*
X113737400Y-99841000I0J25400D01*
G01*
X113737400Y-99541000D01*
G75*
G02*
X113762800Y-99515600I25400J0D01*
G01*
G37*
G36*
G01*
X113762800Y-99015600D02*
X114912800Y-99015600D01*
G75*
G02*
X114938200Y-99041000I0J-25400D01*
G01*
X114938200Y-99341000D01*
G75*
G02*
X114912800Y-99366400I-25400J0D01*
G01*
X113762800Y-99366400D01*
G75*
G02*
X113737400Y-99341000I0J25400D01*
G01*
X113737400Y-99041000D01*
G75*
G02*
X113762800Y-99015600I25400J0D01*
G01*
G37*
G36*
G01*
X113762800Y-98515600D02*
X114912800Y-98515600D01*
G75*
G02*
X114938200Y-98541000I0J-25400D01*
G01*
X114938200Y-98841000D01*
G75*
G02*
X114912800Y-98866400I-25400J0D01*
G01*
X113762800Y-98866400D01*
G75*
G02*
X113737400Y-98841000I0J25400D01*
G01*
X113737400Y-98541000D01*
G75*
G02*
X113762800Y-98515600I25400J0D01*
G01*
G37*
G36*
G01*
X113762800Y-98015600D02*
X114912800Y-98015600D01*
G75*
G02*
X114938200Y-98041000I0J-25400D01*
G01*
X114938200Y-98341000D01*
G75*
G02*
X114912800Y-98366400I-25400J0D01*
G01*
X113762800Y-98366400D01*
G75*
G02*
X113737400Y-98341000I0J25400D01*
G01*
X113737400Y-98041000D01*
G75*
G02*
X113762800Y-98015600I25400J0D01*
G01*
G37*
G36*
G01*
X113762800Y-97515600D02*
X114912800Y-97515600D01*
G75*
G02*
X114938200Y-97541000I0J-25400D01*
G01*
X114938200Y-97841000D01*
G75*
G02*
X114912800Y-97866400I-25400J0D01*
G01*
X113762800Y-97866400D01*
G75*
G02*
X113737400Y-97841000I0J25400D01*
G01*
X113737400Y-97541000D01*
G75*
G02*
X113762800Y-97515600I25400J0D01*
G01*
G37*
G36*
G01*
X113762800Y-96715600D02*
X114912800Y-96715600D01*
G75*
G02*
X114938200Y-96741000I0J-25400D01*
G01*
X114938200Y-97041000D01*
G75*
G02*
X114912800Y-97066400I-25400J0D01*
G01*
X113762800Y-97066400D01*
G75*
G02*
X113737400Y-97041000I0J25400D01*
G01*
X113737400Y-96741000D01*
G75*
G02*
X113762800Y-96715600I25400J0D01*
G01*
G37*
G36*
G01*
X113762800Y-95915600D02*
X114912800Y-95915600D01*
G75*
G02*
X114938200Y-95941000I0J-25400D01*
G01*
X114938200Y-96241000D01*
G75*
G02*
X114912800Y-96266400I-25400J0D01*
G01*
X113762800Y-96266400D01*
G75*
G02*
X113737400Y-96241000I0J25400D01*
G01*
X113737400Y-95941000D01*
G75*
G02*
X113762800Y-95915600I25400J0D01*
G01*
G37*
G36*
G01*
X113762800Y-96215600D02*
X114912800Y-96215600D01*
G75*
G02*
X114938200Y-96241000I0J-25400D01*
G01*
X114938200Y-96541000D01*
G75*
G02*
X114912800Y-96566400I-25400J0D01*
G01*
X113762800Y-96566400D01*
G75*
G02*
X113737400Y-96541000I0J25400D01*
G01*
X113737400Y-96241000D01*
G75*
G02*
X113762800Y-96215600I25400J0D01*
G01*
G37*
G36*
G01*
X113762800Y-97015600D02*
X114912800Y-97015600D01*
G75*
G02*
X114938200Y-97041000I0J-25400D01*
G01*
X114938200Y-97341000D01*
G75*
G02*
X114912800Y-97366400I-25400J0D01*
G01*
X113762800Y-97366400D01*
G75*
G02*
X113737400Y-97341000I0J25400D01*
G01*
X113737400Y-97041000D01*
G75*
G02*
X113762800Y-97015600I25400J0D01*
G01*
G37*
G36*
G01*
X113762800Y-101815600D02*
X114912800Y-101815600D01*
G75*
G02*
X114938200Y-101841000I0J-25400D01*
G01*
X114938200Y-102141000D01*
G75*
G02*
X114912800Y-102166400I-25400J0D01*
G01*
X113762800Y-102166400D01*
G75*
G02*
X113737400Y-102141000I0J25400D01*
G01*
X113737400Y-101841000D01*
G75*
G02*
X113762800Y-101815600I25400J0D01*
G01*
G37*
G36*
G01*
X113762800Y-102615600D02*
X114912800Y-102615600D01*
G75*
G02*
X114938200Y-102641000I0J-25400D01*
G01*
X114938200Y-102941000D01*
G75*
G02*
X114912800Y-102966400I-25400J0D01*
G01*
X113762800Y-102966400D01*
G75*
G02*
X113737400Y-102941000I0J25400D01*
G01*
X113737400Y-102641000D01*
G75*
G02*
X113762800Y-102615600I25400J0D01*
G01*
G37*
%TD*%
%TO.C,J1*%
G36*
G01*
X135866400Y-96068700D02*
X135866400Y-95193300D01*
G75*
G02*
X136304100Y-94755600I437700J0D01*
G01*
X138879500Y-94755600D01*
G75*
G02*
X139317200Y-95193300I0J-437700D01*
G01*
X139317200Y-96068700D01*
G75*
G02*
X138879500Y-96506400I-437700J0D01*
G01*
X136304100Y-96506400D01*
G75*
G02*
X135866400Y-96068700I0J437700D01*
G01*
G37*
G36*
G01*
X135866400Y-98608700D02*
X135866400Y-97733300D01*
G75*
G02*
X136304100Y-97295600I437700J0D01*
G01*
X138879500Y-97295600D01*
G75*
G02*
X139317200Y-97733300I0J-437700D01*
G01*
X139317200Y-98608700D01*
G75*
G02*
X138879500Y-99046400I-437700J0D01*
G01*
X136304100Y-99046400D01*
G75*
G02*
X135866400Y-98608700I0J437700D01*
G01*
G37*
G36*
G01*
X135866400Y-101148700D02*
X135866400Y-100273300D01*
G75*
G02*
X136304100Y-99835600I437700J0D01*
G01*
X138879500Y-99835600D01*
G75*
G02*
X139317200Y-100273300I0J-437700D01*
G01*
X139317200Y-101148700D01*
G75*
G02*
X138879500Y-101586400I-437700J0D01*
G01*
X136304100Y-101586400D01*
G75*
G02*
X135866400Y-101148700I0J437700D01*
G01*
G37*
G36*
G01*
X135866400Y-103688700D02*
X135866400Y-102813300D01*
G75*
G02*
X136304100Y-102375600I437700J0D01*
G01*
X138879500Y-102375600D01*
G75*
G02*
X139317200Y-102813300I0J-437700D01*
G01*
X139317200Y-103688700D01*
G75*
G02*
X138879500Y-104126400I-437700J0D01*
G01*
X136304100Y-104126400D01*
G75*
G02*
X135866400Y-103688700I0J437700D01*
G01*
G37*
%TD*%
D13*
%TO.C,JP2*%
G36*
X134229039Y-97750665D02*
G01*
X134229039Y-97761720D01*
X134228917Y-97764210D01*
X134226031Y-97793509D01*
X134225665Y-97795975D01*
X134219921Y-97824850D01*
X134219315Y-97827267D01*
X134210769Y-97855440D01*
X134209930Y-97857787D01*
X134198664Y-97884987D01*
X134197598Y-97887240D01*
X134183720Y-97913204D01*
X134182438Y-97915343D01*
X134166081Y-97939822D01*
X134164596Y-97941824D01*
X134145919Y-97964582D01*
X134144246Y-97966429D01*
X134123429Y-97987246D01*
X134121582Y-97988919D01*
X134098824Y-98007596D01*
X134096822Y-98009081D01*
X134072343Y-98025438D01*
X134070204Y-98026720D01*
X134044240Y-98040598D01*
X134041987Y-98041664D01*
X134014787Y-98052930D01*
X134012440Y-98053769D01*
X133984267Y-98062315D01*
X133981850Y-98062921D01*
X133952975Y-98068665D01*
X133950509Y-98069031D01*
X133921210Y-98071917D01*
X133918720Y-98072039D01*
X133907665Y-98072039D01*
X133904000Y-98072400D01*
X133304000Y-98072400D01*
X133300335Y-98072039D01*
X133289280Y-98072039D01*
X133286790Y-98071917D01*
X133257491Y-98069031D01*
X133255025Y-98068665D01*
X133226150Y-98062921D01*
X133223733Y-98062315D01*
X133195560Y-98053769D01*
X133193213Y-98052930D01*
X133166013Y-98041664D01*
X133163760Y-98040598D01*
X133137796Y-98026720D01*
X133135657Y-98025438D01*
X133111178Y-98009081D01*
X133109176Y-98007596D01*
X133086418Y-97988919D01*
X133084571Y-97987246D01*
X133063754Y-97966429D01*
X133062081Y-97964582D01*
X133043404Y-97941824D01*
X133041919Y-97939822D01*
X133025562Y-97915343D01*
X133024280Y-97913204D01*
X133010402Y-97887240D01*
X133009336Y-97884987D01*
X132998070Y-97857787D01*
X132997231Y-97855440D01*
X132988685Y-97827267D01*
X132988079Y-97824850D01*
X132982335Y-97795975D01*
X132981969Y-97793509D01*
X132979083Y-97764210D01*
X132978961Y-97761720D01*
X132978961Y-97750665D01*
X132978600Y-97747000D01*
X132978600Y-97247000D01*
X132979088Y-97242045D01*
X132980533Y-97237280D01*
X132982881Y-97232889D01*
X132986039Y-97229039D01*
X132989889Y-97225881D01*
X132994280Y-97223533D01*
X132999045Y-97222088D01*
X133004000Y-97221600D01*
X134204000Y-97221600D01*
X134208955Y-97222088D01*
X134213720Y-97223533D01*
X134218111Y-97225881D01*
X134221961Y-97229039D01*
X134225119Y-97232889D01*
X134227467Y-97237280D01*
X134228912Y-97242045D01*
X134229400Y-97247000D01*
X134229400Y-97747000D01*
X134229039Y-97750665D01*
G37*
G36*
G01*
X133004000Y-96221600D02*
X134204000Y-96221600D01*
G75*
G02*
X134229400Y-96247000I0J-25400D01*
G01*
X134229400Y-97047000D01*
G75*
G02*
X134204000Y-97072400I-25400J0D01*
G01*
X133004000Y-97072400D01*
G75*
G02*
X132978600Y-97047000I0J25400D01*
G01*
X132978600Y-96247000D01*
G75*
G02*
X133004000Y-96221600I25400J0D01*
G01*
G37*
G36*
X132978961Y-95543335D02*
G01*
X132978961Y-95532280D01*
X132979083Y-95529790D01*
X132981969Y-95500491D01*
X132982335Y-95498025D01*
X132988079Y-95469150D01*
X132988685Y-95466733D01*
X132997231Y-95438560D01*
X132998070Y-95436213D01*
X133009336Y-95409013D01*
X133010402Y-95406760D01*
X133024280Y-95380796D01*
X133025562Y-95378657D01*
X133041919Y-95354178D01*
X133043404Y-95352176D01*
X133062081Y-95329418D01*
X133063754Y-95327571D01*
X133084571Y-95306754D01*
X133086418Y-95305081D01*
X133109176Y-95286404D01*
X133111178Y-95284919D01*
X133135657Y-95268562D01*
X133137796Y-95267280D01*
X133163760Y-95253402D01*
X133166013Y-95252336D01*
X133193213Y-95241070D01*
X133195560Y-95240231D01*
X133223733Y-95231685D01*
X133226150Y-95231079D01*
X133255025Y-95225335D01*
X133257491Y-95224969D01*
X133286790Y-95222083D01*
X133289280Y-95221961D01*
X133300335Y-95221961D01*
X133304000Y-95221600D01*
X133904000Y-95221600D01*
X133907665Y-95221961D01*
X133918720Y-95221961D01*
X133921210Y-95222083D01*
X133950509Y-95224969D01*
X133952975Y-95225335D01*
X133981850Y-95231079D01*
X133984267Y-95231685D01*
X134012440Y-95240231D01*
X134014787Y-95241070D01*
X134041987Y-95252336D01*
X134044240Y-95253402D01*
X134070204Y-95267280D01*
X134072343Y-95268562D01*
X134096822Y-95284919D01*
X134098824Y-95286404D01*
X134121582Y-95305081D01*
X134123429Y-95306754D01*
X134144246Y-95327571D01*
X134145919Y-95329418D01*
X134164596Y-95352176D01*
X134166081Y-95354178D01*
X134182438Y-95378657D01*
X134183720Y-95380796D01*
X134197598Y-95406760D01*
X134198664Y-95409013D01*
X134209930Y-95436213D01*
X134210769Y-95438560D01*
X134219315Y-95466733D01*
X134219921Y-95469150D01*
X134225665Y-95498025D01*
X134226031Y-95500491D01*
X134228917Y-95529790D01*
X134229039Y-95532280D01*
X134229039Y-95543335D01*
X134229400Y-95547000D01*
X134229400Y-96047000D01*
X134228912Y-96051955D01*
X134227467Y-96056720D01*
X134225119Y-96061111D01*
X134221961Y-96064961D01*
X134218111Y-96068119D01*
X134213720Y-96070467D01*
X134208955Y-96071912D01*
X134204000Y-96072400D01*
X133004000Y-96072400D01*
X132999045Y-96071912D01*
X132994280Y-96070467D01*
X132989889Y-96068119D01*
X132986039Y-96064961D01*
X132982881Y-96061111D01*
X132980533Y-96056720D01*
X132979088Y-96051955D01*
X132978600Y-96047000D01*
X132978600Y-95547000D01*
X132978961Y-95543335D01*
G37*
%TD*%
%TO.C,JP1*%
G36*
X134229039Y-101657665D02*
G01*
X134229039Y-101668720D01*
X134228917Y-101671210D01*
X134226031Y-101700509D01*
X134225665Y-101702975D01*
X134219921Y-101731850D01*
X134219315Y-101734267D01*
X134210769Y-101762440D01*
X134209930Y-101764787D01*
X134198664Y-101791987D01*
X134197598Y-101794240D01*
X134183720Y-101820204D01*
X134182438Y-101822343D01*
X134166081Y-101846822D01*
X134164596Y-101848824D01*
X134145919Y-101871582D01*
X134144246Y-101873429D01*
X134123429Y-101894246D01*
X134121582Y-101895919D01*
X134098824Y-101914596D01*
X134096822Y-101916081D01*
X134072343Y-101932438D01*
X134070204Y-101933720D01*
X134044240Y-101947598D01*
X134041987Y-101948664D01*
X134014787Y-101959930D01*
X134012440Y-101960769D01*
X133984267Y-101969315D01*
X133981850Y-101969921D01*
X133952975Y-101975665D01*
X133950509Y-101976031D01*
X133921210Y-101978917D01*
X133918720Y-101979039D01*
X133907665Y-101979039D01*
X133904000Y-101979400D01*
X133304000Y-101979400D01*
X133300335Y-101979039D01*
X133289280Y-101979039D01*
X133286790Y-101978917D01*
X133257491Y-101976031D01*
X133255025Y-101975665D01*
X133226150Y-101969921D01*
X133223733Y-101969315D01*
X133195560Y-101960769D01*
X133193213Y-101959930D01*
X133166013Y-101948664D01*
X133163760Y-101947598D01*
X133137796Y-101933720D01*
X133135657Y-101932438D01*
X133111178Y-101916081D01*
X133109176Y-101914596D01*
X133086418Y-101895919D01*
X133084571Y-101894246D01*
X133063754Y-101873429D01*
X133062081Y-101871582D01*
X133043404Y-101848824D01*
X133041919Y-101846822D01*
X133025562Y-101822343D01*
X133024280Y-101820204D01*
X133010402Y-101794240D01*
X133009336Y-101791987D01*
X132998070Y-101764787D01*
X132997231Y-101762440D01*
X132988685Y-101734267D01*
X132988079Y-101731850D01*
X132982335Y-101702975D01*
X132981969Y-101700509D01*
X132979083Y-101671210D01*
X132978961Y-101668720D01*
X132978961Y-101657665D01*
X132978600Y-101654000D01*
X132978600Y-101154000D01*
X132979088Y-101149045D01*
X132980533Y-101144280D01*
X132982881Y-101139889D01*
X132986039Y-101136039D01*
X132989889Y-101132881D01*
X132994280Y-101130533D01*
X132999045Y-101129088D01*
X133004000Y-101128600D01*
X134204000Y-101128600D01*
X134208955Y-101129088D01*
X134213720Y-101130533D01*
X134218111Y-101132881D01*
X134221961Y-101136039D01*
X134225119Y-101139889D01*
X134227467Y-101144280D01*
X134228912Y-101149045D01*
X134229400Y-101154000D01*
X134229400Y-101654000D01*
X134229039Y-101657665D01*
G37*
G36*
G01*
X133004000Y-100128600D02*
X134204000Y-100128600D01*
G75*
G02*
X134229400Y-100154000I0J-25400D01*
G01*
X134229400Y-100954000D01*
G75*
G02*
X134204000Y-100979400I-25400J0D01*
G01*
X133004000Y-100979400D01*
G75*
G02*
X132978600Y-100954000I0J25400D01*
G01*
X132978600Y-100154000D01*
G75*
G02*
X133004000Y-100128600I25400J0D01*
G01*
G37*
G36*
X132978961Y-99450335D02*
G01*
X132978961Y-99439280D01*
X132979083Y-99436790D01*
X132981969Y-99407491D01*
X132982335Y-99405025D01*
X132988079Y-99376150D01*
X132988685Y-99373733D01*
X132997231Y-99345560D01*
X132998070Y-99343213D01*
X133009336Y-99316013D01*
X133010402Y-99313760D01*
X133024280Y-99287796D01*
X133025562Y-99285657D01*
X133041919Y-99261178D01*
X133043404Y-99259176D01*
X133062081Y-99236418D01*
X133063754Y-99234571D01*
X133084571Y-99213754D01*
X133086418Y-99212081D01*
X133109176Y-99193404D01*
X133111178Y-99191919D01*
X133135657Y-99175562D01*
X133137796Y-99174280D01*
X133163760Y-99160402D01*
X133166013Y-99159336D01*
X133193213Y-99148070D01*
X133195560Y-99147231D01*
X133223733Y-99138685D01*
X133226150Y-99138079D01*
X133255025Y-99132335D01*
X133257491Y-99131969D01*
X133286790Y-99129083D01*
X133289280Y-99128961D01*
X133300335Y-99128961D01*
X133304000Y-99128600D01*
X133904000Y-99128600D01*
X133907665Y-99128961D01*
X133918720Y-99128961D01*
X133921210Y-99129083D01*
X133950509Y-99131969D01*
X133952975Y-99132335D01*
X133981850Y-99138079D01*
X133984267Y-99138685D01*
X134012440Y-99147231D01*
X134014787Y-99148070D01*
X134041987Y-99159336D01*
X134044240Y-99160402D01*
X134070204Y-99174280D01*
X134072343Y-99175562D01*
X134096822Y-99191919D01*
X134098824Y-99193404D01*
X134121582Y-99212081D01*
X134123429Y-99213754D01*
X134144246Y-99234571D01*
X134145919Y-99236418D01*
X134164596Y-99259176D01*
X134166081Y-99261178D01*
X134182438Y-99285657D01*
X134183720Y-99287796D01*
X134197598Y-99313760D01*
X134198664Y-99316013D01*
X134209930Y-99343213D01*
X134210769Y-99345560D01*
X134219315Y-99373733D01*
X134219921Y-99376150D01*
X134225665Y-99405025D01*
X134226031Y-99407491D01*
X134228917Y-99436790D01*
X134229039Y-99439280D01*
X134229039Y-99450335D01*
X134229400Y-99454000D01*
X134229400Y-99954000D01*
X134228912Y-99958955D01*
X134227467Y-99963720D01*
X134225119Y-99968111D01*
X134221961Y-99971961D01*
X134218111Y-99975119D01*
X134213720Y-99977467D01*
X134208955Y-99978912D01*
X134204000Y-99979400D01*
X133004000Y-99979400D01*
X132999045Y-99978912D01*
X132994280Y-99977467D01*
X132989889Y-99975119D01*
X132986039Y-99971961D01*
X132982881Y-99968111D01*
X132980533Y-99963720D01*
X132979088Y-99958955D01*
X132978600Y-99954000D01*
X132978600Y-99454000D01*
X132978961Y-99450335D01*
G37*
%TD*%
%TO.C,R12*%
G36*
G01*
X118776200Y-102201300D02*
X118776200Y-102776700D01*
G75*
G02*
X118563500Y-102989400I-212700J0D01*
G01*
X118138100Y-102989400D01*
G75*
G02*
X117925400Y-102776700I0J212700D01*
G01*
X117925400Y-102201300D01*
G75*
G02*
X118138100Y-101988600I212700J0D01*
G01*
X118563500Y-101988600D01*
G75*
G02*
X118776200Y-102201300I0J-212700D01*
G01*
G37*
G36*
G01*
X117126200Y-102201300D02*
X117126200Y-102776700D01*
G75*
G02*
X116913500Y-102989400I-212700J0D01*
G01*
X116488100Y-102989400D01*
G75*
G02*
X116275400Y-102776700I0J212700D01*
G01*
X116275400Y-102201300D01*
G75*
G02*
X116488100Y-101988600I212700J0D01*
G01*
X116913500Y-101988600D01*
G75*
G02*
X117126200Y-102201300I0J-212700D01*
G01*
G37*
%TD*%
%TO.C,C66*%
G36*
G01*
X118776200Y-100956300D02*
X118776200Y-101481700D01*
G75*
G02*
X118538500Y-101719400I-237700J0D01*
G01*
X118063100Y-101719400D01*
G75*
G02*
X117825400Y-101481700I0J237700D01*
G01*
X117825400Y-100956300D01*
G75*
G02*
X118063100Y-100718600I237700J0D01*
G01*
X118538500Y-100718600D01*
G75*
G02*
X118776200Y-100956300I0J-237700D01*
G01*
G37*
G36*
G01*
X117226200Y-100956300D02*
X117226200Y-101481700D01*
G75*
G02*
X116988500Y-101719400I-237700J0D01*
G01*
X116513100Y-101719400D01*
G75*
G02*
X116275400Y-101481700I0J237700D01*
G01*
X116275400Y-100956300D01*
G75*
G02*
X116513100Y-100718600I237700J0D01*
G01*
X116988500Y-100718600D01*
G75*
G02*
X117226200Y-100956300I0J-237700D01*
G01*
G37*
%TD*%
%TO.C,R16*%
G36*
G01*
X119958400Y-101506700D02*
X119958400Y-100931300D01*
G75*
G02*
X120171100Y-100718600I212700J0D01*
G01*
X120596500Y-100718600D01*
G75*
G02*
X120809200Y-100931300I0J-212700D01*
G01*
X120809200Y-101506700D01*
G75*
G02*
X120596500Y-101719400I-212700J0D01*
G01*
X120171100Y-101719400D01*
G75*
G02*
X119958400Y-101506700I0J212700D01*
G01*
G37*
G36*
G01*
X121608400Y-101506700D02*
X121608400Y-100931300D01*
G75*
G02*
X121821100Y-100718600I212700J0D01*
G01*
X122246500Y-100718600D01*
G75*
G02*
X122459200Y-100931300I0J-212700D01*
G01*
X122459200Y-101506700D01*
G75*
G02*
X122246500Y-101719400I-212700J0D01*
G01*
X121821100Y-101719400D01*
G75*
G02*
X121608400Y-101506700I0J212700D01*
G01*
G37*
%TD*%
%TO.C,U3*%
G36*
G01*
X115870400Y-98435000D02*
X115870400Y-97785000D01*
G75*
G02*
X115895800Y-97759600I25400J0D01*
G01*
X116955800Y-97759600D01*
G75*
G02*
X116981200Y-97785000I0J-25400D01*
G01*
X116981200Y-98435000D01*
G75*
G02*
X116955800Y-98460400I-25400J0D01*
G01*
X115895800Y-98460400D01*
G75*
G02*
X115870400Y-98435000I0J25400D01*
G01*
G37*
G36*
G01*
X115870400Y-99385000D02*
X115870400Y-98735000D01*
G75*
G02*
X115895800Y-98709600I25400J0D01*
G01*
X116955800Y-98709600D01*
G75*
G02*
X116981200Y-98735000I0J-25400D01*
G01*
X116981200Y-99385000D01*
G75*
G02*
X116955800Y-99410400I-25400J0D01*
G01*
X115895800Y-99410400D01*
G75*
G02*
X115870400Y-99385000I0J25400D01*
G01*
G37*
G36*
G01*
X115870400Y-100335000D02*
X115870400Y-99685000D01*
G75*
G02*
X115895800Y-99659600I25400J0D01*
G01*
X116955800Y-99659600D01*
G75*
G02*
X116981200Y-99685000I0J-25400D01*
G01*
X116981200Y-100335000D01*
G75*
G02*
X116955800Y-100360400I-25400J0D01*
G01*
X115895800Y-100360400D01*
G75*
G02*
X115870400Y-100335000I0J25400D01*
G01*
G37*
G36*
G01*
X118070400Y-100335000D02*
X118070400Y-99685000D01*
G75*
G02*
X118095800Y-99659600I25400J0D01*
G01*
X119155800Y-99659600D01*
G75*
G02*
X119181200Y-99685000I0J-25400D01*
G01*
X119181200Y-100335000D01*
G75*
G02*
X119155800Y-100360400I-25400J0D01*
G01*
X118095800Y-100360400D01*
G75*
G02*
X118070400Y-100335000I0J25400D01*
G01*
G37*
G36*
G01*
X118070400Y-98435000D02*
X118070400Y-97785000D01*
G75*
G02*
X118095800Y-97759600I25400J0D01*
G01*
X119155800Y-97759600D01*
G75*
G02*
X119181200Y-97785000I0J-25400D01*
G01*
X119181200Y-98435000D01*
G75*
G02*
X119155800Y-98460400I-25400J0D01*
G01*
X118095800Y-98460400D01*
G75*
G02*
X118070400Y-98435000I0J25400D01*
G01*
G37*
G36*
G01*
X118070400Y-99385000D02*
X118070400Y-98735000D01*
G75*
G02*
X118095800Y-98709600I25400J0D01*
G01*
X119155800Y-98709600D01*
G75*
G02*
X119181200Y-98735000I0J-25400D01*
G01*
X119181200Y-99385000D01*
G75*
G02*
X119155800Y-99410400I-25400J0D01*
G01*
X118095800Y-99410400D01*
G75*
G02*
X118070400Y-99385000I0J25400D01*
G01*
G37*
%TD*%
%TO.C,R18*%
G36*
G01*
X120286100Y-95904600D02*
X120861500Y-95904600D01*
G75*
G02*
X121074200Y-96117300I0J-212700D01*
G01*
X121074200Y-96542700D01*
G75*
G02*
X120861500Y-96755400I-212700J0D01*
G01*
X120286100Y-96755400D01*
G75*
G02*
X120073400Y-96542700I0J212700D01*
G01*
X120073400Y-96117300D01*
G75*
G02*
X120286100Y-95904600I212700J0D01*
G01*
G37*
G36*
G01*
X120286100Y-97554600D02*
X120861500Y-97554600D01*
G75*
G02*
X121074200Y-97767300I0J-212700D01*
G01*
X121074200Y-98192700D01*
G75*
G02*
X120861500Y-98405400I-212700J0D01*
G01*
X120286100Y-98405400D01*
G75*
G02*
X120073400Y-98192700I0J212700D01*
G01*
X120073400Y-97767300D01*
G75*
G02*
X120286100Y-97554600I212700J0D01*
G01*
G37*
%TD*%
%TO.C,R11*%
G36*
G01*
X122459200Y-99661300D02*
X122459200Y-100236700D01*
G75*
G02*
X122246500Y-100449400I-212700J0D01*
G01*
X121821100Y-100449400D01*
G75*
G02*
X121608400Y-100236700I0J212700D01*
G01*
X121608400Y-99661300D01*
G75*
G02*
X121821100Y-99448600I212700J0D01*
G01*
X122246500Y-99448600D01*
G75*
G02*
X122459200Y-99661300I0J-212700D01*
G01*
G37*
G36*
G01*
X120809200Y-99661300D02*
X120809200Y-100236700D01*
G75*
G02*
X120596500Y-100449400I-212700J0D01*
G01*
X120171100Y-100449400D01*
G75*
G02*
X119958400Y-100236700I0J212700D01*
G01*
X119958400Y-99661300D01*
G75*
G02*
X120171100Y-99448600I212700J0D01*
G01*
X120596500Y-99448600D01*
G75*
G02*
X120809200Y-99661300I0J-212700D01*
G01*
G37*
%TD*%
%TO.C,R10*%
G36*
G01*
X122459200Y-102201300D02*
X122459200Y-102776700D01*
G75*
G02*
X122246500Y-102989400I-212700J0D01*
G01*
X121821100Y-102989400D01*
G75*
G02*
X121608400Y-102776700I0J212700D01*
G01*
X121608400Y-102201300D01*
G75*
G02*
X121821100Y-101988600I212700J0D01*
G01*
X122246500Y-101988600D01*
G75*
G02*
X122459200Y-102201300I0J-212700D01*
G01*
G37*
G36*
G01*
X120809200Y-102201300D02*
X120809200Y-102776700D01*
G75*
G02*
X120596500Y-102989400I-212700J0D01*
G01*
X120171100Y-102989400D01*
G75*
G02*
X119958400Y-102776700I0J212700D01*
G01*
X119958400Y-102201300D01*
G75*
G02*
X120171100Y-101988600I212700J0D01*
G01*
X120596500Y-101988600D01*
G75*
G02*
X120809200Y-102201300I0J-212700D01*
G01*
G37*
%TD*%
%TO.C,C1*%
G36*
G01*
X122459200Y-103496300D02*
X122459200Y-104021700D01*
G75*
G02*
X122221500Y-104259400I-237700J0D01*
G01*
X121746100Y-104259400D01*
G75*
G02*
X121508400Y-104021700I0J237700D01*
G01*
X121508400Y-103496300D01*
G75*
G02*
X121746100Y-103258600I237700J0D01*
G01*
X122221500Y-103258600D01*
G75*
G02*
X122459200Y-103496300I0J-237700D01*
G01*
G37*
G36*
G01*
X120909200Y-103496300D02*
X120909200Y-104021700D01*
G75*
G02*
X120671500Y-104259400I-237700J0D01*
G01*
X120196100Y-104259400D01*
G75*
G02*
X119958400Y-104021700I0J237700D01*
G01*
X119958400Y-103496300D01*
G75*
G02*
X120196100Y-103258600I237700J0D01*
G01*
X120671500Y-103258600D01*
G75*
G02*
X120909200Y-103496300I0J-237700D01*
G01*
G37*
%TD*%
%TO.C,R17*%
G36*
G01*
X121556100Y-95904600D02*
X122131500Y-95904600D01*
G75*
G02*
X122344200Y-96117300I0J-212700D01*
G01*
X122344200Y-96542700D01*
G75*
G02*
X122131500Y-96755400I-212700J0D01*
G01*
X121556100Y-96755400D01*
G75*
G02*
X121343400Y-96542700I0J212700D01*
G01*
X121343400Y-96117300D01*
G75*
G02*
X121556100Y-95904600I212700J0D01*
G01*
G37*
G36*
G01*
X121556100Y-97554600D02*
X122131500Y-97554600D01*
G75*
G02*
X122344200Y-97767300I0J-212700D01*
G01*
X122344200Y-98192700D01*
G75*
G02*
X122131500Y-98405400I-212700J0D01*
G01*
X121556100Y-98405400D01*
G75*
G02*
X121343400Y-98192700I0J212700D01*
G01*
X121343400Y-97767300D01*
G75*
G02*
X121556100Y-97554600I212700J0D01*
G01*
G37*
%TD*%
M02*
