M48
; DRILL file {KiCad (5.1.9)-1} date 05/26/21 15:31:30
; FORMAT={-:-/ absolute / inch / decimal}
; #@! TF.CreationDate,2021-05-26T15:31:30+08:00
; #@! TF.GenerationSoftware,Kicad,Pcbnew,(5.1.9)-1
; #@! TF.FileFunction,Plated,1,2,PTH
FMAT,2
INCH
T1C0.0118
T2C0.0236
%
G90
G05
T1
X4.272Y-3.785
X4.272Y-3.865
X4.272Y-3.965
X4.272Y-4.045
X4.32Y-3.825
X4.32Y-3.915
X4.32Y-4.005
X4.367Y-3.785
X4.367Y-3.865
X4.367Y-3.965
X4.367Y-4.045
X4.415Y-3.825
X4.415Y-4.005
X4.457Y-3.865
X4.457Y-3.965
X4.547Y-3.975
X4.6045Y-3.755
X4.6045Y-3.7975
X4.627Y-3.88
X4.697Y-4.0
X4.697Y-4.085
X4.707Y-3.77
X4.727Y-3.825
X4.797Y-3.975
X4.837Y-4.085
X4.842Y-3.765
X4.842Y-3.805
X4.847Y-3.855
X4.847Y-3.945
X4.882Y-3.765
X4.902Y-4.09
X4.922Y-3.82
X4.922Y-3.915
X4.922Y-4.01
X4.982Y-4.09
X5.0018Y-3.7389
X5.012Y-4.09
X5.017Y-3.82
X5.017Y-3.915
X5.017Y-4.01
X5.035Y-3.74
X5.042Y-4.09
X5.0968Y-3.74
X5.112Y-3.82
X5.112Y-3.915
X5.112Y-4.01
X5.1503Y-3.7797
X5.155Y-4.0921
X5.19Y-3.82
X5.195Y-4.07
X5.1995Y-3.8863
X5.2006Y-3.9449
X5.2141Y-3.8587
X5.2497Y-4.0632
X5.2782Y-4.0719
X5.31Y-3.78
X5.32Y-4.035
X5.32Y-4.065
X5.3371Y-4.0048
T2
G00X4.3265Y-3.7449
M15
G01X4.3029Y-3.7449
M16
G05
G00X4.3265Y-4.0851
M15
G01X4.3029Y-4.0851
M16
G05
G00X4.5009Y-3.7449
M15
G01X4.4576Y-3.7449
M16
G05
G00X4.5009Y-4.0851
M15
G01X4.4576Y-4.0851
M16
G05
T0
M30
